<svg width="520" height="544" viewBox="0 0 520 544" fill="none" xmlns="http://www.w3.org/2000/svg">
    <svg width="280" height="340" viewBox="0 0 280 340" fill="none" xmlns="http://www.w3.org/2000/svg" x="99.7992px" y="15.322px">
    <path d="M161.395 0.416965C222.149 5.34865 240.827 81.5072 259.058 144.145C276.402 203.734 297.652 274.29 252.51 313.46C202.652 356.722 131.398 340.164 79.2413 300.172C25.1697 258.711 -14.0241 192.083 4.77144 123.503C25.0046 49.6788 90.1558 -5.36591 161.395 0.416965Z" fill="#F2F9FF"/>
    </svg>
<path d="M318.846 544C207.752 544 117.693 528.094 117.693 508.472C117.693 488.851 207.752 472.944 318.846 472.944C429.94 472.944 520 488.851 520 508.472C520 528.094 429.94 544 318.846 544Z" fill="#3F3D56"/>
<path d="M391.439 214.133C391.439 214.133 406.895 257.629 400.025 273.081C393.156 288.533 382.28 303.413 382.28 303.413C382.28 303.413 386.287 216.995 391.439 214.133Z" fill="#D0CDE1"/>
<path opacity="0.1" d="M391.439 214.133C391.439 214.133 406.895 257.629 400.025 273.081C393.156 288.533 382.28 303.413 382.28 303.413C382.28 303.413 386.287 216.995 391.439 214.133Z" fill="black"/>
<path d="M380.56 314.859C380.56 314.859 381.705 325.733 382.277 326.306C382.85 326.878 381.705 328.022 382.277 329.739C382.85 331.456 383.422 333.746 382.277 334.318C381.132 334.89 388.574 385.253 388.574 385.253C388.574 385.253 406.892 409.29 399.45 447.062L397.161 485.407C397.161 485.407 379.415 486.552 379.415 480.256C379.415 480.256 380.56 472.816 380.56 469.382C380.56 465.949 377.698 465.949 379.415 464.232C381.132 462.515 381.132 461.37 381.132 461.37C381.132 461.37 378.27 459.081 378.843 458.509C379.415 457.936 373.691 417.302 373.691 417.302C373.691 417.302 367.394 411.007 367.394 407.573V404.139C367.394 404.139 364.532 396.699 364.532 396.127C364.532 395.555 349.076 360.644 349.076 360.644L342.779 385.826L335.91 421.881C335.91 421.881 332.475 454.502 325.606 467.093C325.606 467.093 313.585 508.299 313.585 507.155C313.585 506.01 293.549 503.149 294.122 497.998C294.694 492.847 306.143 420.736 306.143 420.736L303.281 313.715L380.56 314.859Z" fill="#2F2E41"/>
<path d="M396.017 482.546C396.017 482.546 411.472 512.878 401.168 514.022C390.865 515.167 386.857 515.167 382.278 510.589C379.774 508.086 374.704 504.727 370.622 502.197C368.204 500.722 366.25 498.595 364.985 496.061C363.72 493.526 363.195 490.686 363.47 487.867C363.772 485.067 364.819 482.76 367.395 482.546C374.264 481.973 382.278 475.678 382.278 475.678L396.017 482.546Z" fill="#2F2E41"/>
<path d="M310.724 504.865C310.724 504.865 326.179 535.198 315.876 536.342C305.572 537.487 301.565 537.487 296.985 532.909C294.481 530.406 289.411 527.047 285.329 524.517C282.911 523.042 280.957 520.915 279.692 518.381C278.427 515.846 277.902 513.006 278.177 510.187C278.479 507.387 279.526 505.08 282.102 504.865C288.971 504.293 296.985 497.998 296.985 497.998L310.724 504.865Z" fill="#2F2E41"/>
<path d="M327.06 164.495C313.77 164.495 302.997 153.724 302.997 140.437C302.997 127.151 313.77 116.38 327.06 116.38C340.35 116.38 351.123 127.151 351.123 140.437C351.123 153.724 340.35 164.495 327.06 164.495Z" fill="#FFB8B8"/>
<path d="M342.53 148.342C342.53 148.342 359.718 179.961 361.093 179.961C362.468 179.961 330.154 190.271 330.154 190.271C330.154 190.271 321.216 160.028 319.841 157.278L342.53 148.342Z" fill="#FFB8B8"/>
<path d="M316.161 182.943C316.161 182.943 350.507 164.057 353.942 164.629C357.376 165.201 394.013 197.25 393.44 210.413C392.868 223.576 388.288 245.324 388.288 245.324C388.288 245.324 386.571 305.989 383.136 306.561C379.702 307.133 383.709 317.435 382.564 317.435C381.419 317.435 302.422 317.435 301.85 315.718C301.277 314.001 316.161 182.943 316.161 182.943Z" fill="#D0CDE1"/>
<path d="M296.983 318.866C296.983 318.866 286.107 352.059 295.266 350.915C304.425 349.77 308.432 322.299 308.432 322.299L296.983 318.866Z" fill="#FFB8B8"/>
<path d="M326.177 180.939C326.177 180.939 347.357 185.518 343.923 214.133C340.488 242.748 334.191 271.364 334.191 271.364L313.011 317.721L310.721 326.305L295.265 322.299L306.714 255.912C306.714 255.912 310.721 184.945 315.873 182.656C319.122 181.271 322.655 180.683 326.177 180.939Z" fill="#D0CDE1"/>
<path opacity="0.1" d="M339.06 270.506L312.727 317.435L334.913 267.984L339.06 270.506Z" fill="black"/>
<path d="M303.103 133.354L303.024 131.515L299.366 132.426C299.405 131.835 299.572 131.261 299.855 130.741C300.138 130.222 300.53 129.77 301.005 129.417L297.109 129.199C300.378 124.554 304.556 120.62 309.388 117.634C314.221 114.648 319.609 112.672 325.227 111.826C333.656 110.604 343.04 112.372 348.819 118.625C351.623 121.658 353.384 125.516 354.637 129.451C356.945 136.699 357.415 145.339 352.603 151.23C347.712 157.218 339.17 158.391 331.473 159.132C328.765 159.392 325.927 159.635 323.417 158.585C323.138 155.707 323.507 152.803 324.496 150.086C324.908 149.245 325.105 148.315 325.069 147.379C324.727 145.09 321.673 144.513 319.378 144.822C317.084 145.132 314.325 145.605 312.817 143.848C311.779 142.638 311.84 140.876 311.703 139.288C311.328 134.963 303.143 134.26 303.103 133.354Z" fill="#2F2E41"/>
<path d="M155.51 513.361C140.025 513.361 127.472 500.811 127.472 485.33C127.472 469.849 140.025 457.299 155.51 457.299C170.994 457.299 183.547 469.849 183.547 485.33C183.547 500.811 170.994 513.361 155.51 513.361Z" fill="#006BE8"/>
<path d="M484.791 503.583C469.306 503.583 456.753 491.033 456.753 475.552C456.753 460.071 469.306 447.521 484.791 447.521C500.276 447.521 512.829 460.071 512.829 475.552C512.829 491.033 500.276 503.583 484.791 503.583Z" fill="#006BE8"/>
<path d="M484.788 458.603C473.625 458.603 464.575 449.555 464.575 438.394C464.575 427.233 473.625 418.186 484.788 418.186C495.952 418.186 505.001 427.233 505.001 438.394C505.001 449.555 495.952 458.603 484.788 458.603Z" fill="#006BE8"/>
<path d="M484.791 421.446C476.869 421.446 470.447 415.025 470.447 407.104C470.447 399.183 476.869 392.763 484.791 392.763C492.714 392.763 499.136 399.183 499.136 407.104C499.136 415.025 492.714 421.446 484.791 421.446Z" fill="#006BE8"/>
</svg>
