<svg width="75" height="18" viewBox="0 0 75 18" fill="none" xmlns="http://www.w3.org/2000/svg">
<path d="M0.600098 0V18H27.1092V0H0.600098Z" fill="#23354B" fill-opacity="0.72"/>
<path d="M13.3113 4.1962L13.8487 3.80346L14.3877 4.1962L14.1824 3.56131L14.7287 3.16856H14.0555L13.8487 2.52628L13.6435 3.16856H12.9702L13.5165 3.56131L13.3113 4.1962Z" fill="white"/>
<path d="M10.5281 4.94332L11.0656 4.55057L11.6045 4.94332L11.3993 4.30842L11.9456 3.91568H11.2723L11.0656 3.2734L10.8603 3.91715L10.1871 3.91568L10.7334 4.30842L10.5281 4.94332Z" fill="white"/>
<path d="M9.02945 5.31391L8.82274 5.95766H8.15094L8.69577 6.35041L8.49201 6.98531L9.02945 6.59256L9.5669 6.98531L9.36314 6.35041L9.90797 5.95766H9.23616L9.02945 5.31391Z" fill="white"/>
<path d="M8.28232 9.37133L8.81977 9.76408L8.61601 9.12919L9.16232 8.73792H8.48903L8.28232 8.09416L8.07709 8.73792H7.40381L7.95011 9.12919L7.74488 9.76408L8.28232 9.37133Z" fill="white"/>
<path d="M9.23616 11.5255L9.02945 10.8818L8.82274 11.527L8.15094 11.5255L8.69577 11.9183L8.49201 12.5532L9.02945 12.159L9.5669 12.5532L9.36314 11.9183L9.90797 11.5255H9.23616Z" fill="white"/>
<path d="M11.2767 13.5661L11.07 12.9238L10.8648 13.5661H10.1915L10.7363 13.9588L10.5326 14.5937L11.07 14.201L11.6074 14.5937L11.4037 13.9588L11.95 13.5661H11.2767Z" fill="white"/>
<path d="M14.0554 14.3058L13.8502 13.662L13.6435 14.3058H12.9717L13.5165 14.6971L13.3128 15.3334L13.8502 14.9407L14.3876 15.3334L14.1839 14.6971L14.7287 14.3058H14.0554Z" fill="white"/>
<path d="M16.8357 13.5661L16.6305 12.9238L16.4238 13.5661H15.7505L16.2968 13.9588L16.0916 14.5937L16.6305 14.201L17.1679 14.5937L16.9627 13.9588L17.509 13.5661H16.8357Z" fill="white"/>
<path d="M18.8777 11.5255L18.671 10.8818L18.4643 11.527L17.791 11.5255L18.3373 11.9183L18.132 12.5532L18.671 12.159L19.2084 12.5532L19.0032 11.9183L19.5495 11.5255H18.8777Z" fill="white"/>
<path d="M20.2892 8.72905H19.6159L19.4092 8.08677L19.204 8.73053L18.5307 8.72905L19.077 9.1218L18.8718 9.75669L19.4092 9.36395L19.9467 9.75669L19.7429 9.1218L20.2892 8.72905Z" fill="white"/>
<path d="M18.132 6.97646L18.671 6.58371L19.2084 6.97646L19.0032 6.34156L19.5495 5.95029H18.8762L18.671 5.30654L18.4643 5.95029H17.791L18.3373 6.34156L18.132 6.97646Z" fill="white"/>
<path d="M16.6379 3.2734L16.4326 3.91715L15.7594 3.91568L16.3042 4.3099L16.1004 4.9448L16.6394 4.55057L17.1753 4.9448L16.9716 4.3099L17.5179 3.91568H16.8431L16.6379 3.2734Z" fill="white"/>
<path d="M33.0772 5.33163L33.9026 5.59297C33.7756 6.05364 33.5659 6.39471 33.2706 6.61914C32.9768 6.84209 32.6032 6.9543 32.15 6.9543C31.5904 6.9543 31.1297 6.76236 30.7694 6.37995C30.4077 5.99753 30.2276 5.47485 30.2276 4.81043C30.2276 4.10761 30.4092 3.56279 30.7724 3.17447C31.1341 2.78615 31.611 2.59273 32.2016 2.59273C32.7169 2.59273 33.1363 2.74481 33.4596 3.05044C33.6516 3.2291 33.7948 3.48896 33.8907 3.8256L33.0477 4.02788C32.9975 3.80936 32.8941 3.63661 32.7361 3.50963C32.5767 3.38265 32.3847 3.31916 32.1588 3.31916C31.8458 3.31916 31.5918 3.43138 31.3984 3.65581C31.2035 3.88023 31.1061 4.24493 31.1061 4.74694C31.1061 5.27995 31.202 5.65942 31.394 5.8868C31.5845 6.1127 31.834 6.22639 32.1411 6.22639C32.3685 6.22639 32.5619 6.15404 32.7258 6.01082C32.8882 5.86612 33.0048 5.64022 33.0772 5.33163Z" fill="#23354B" fill-opacity="0.72"/>
<path d="M35.2388 5.35378C35.2388 5.65646 35.3111 5.88975 35.4558 6.05069C35.599 6.21163 35.7762 6.29136 35.9874 6.29136C36.1985 6.29136 36.3757 6.21163 36.5189 6.05069C36.6606 5.88975 36.733 5.65499 36.733 5.34935C36.733 5.04962 36.6606 4.81929 36.5189 4.65835C36.3757 4.49593 36.1985 4.4162 35.9874 4.4162C35.7762 4.4162 35.599 4.49593 35.4558 4.65835C35.3111 4.81929 35.2388 5.0511 35.2388 5.35378ZM34.4104 5.31096C34.4104 5.04224 34.4769 4.78237 34.6098 4.53137C34.7412 4.28036 34.9287 4.08842 35.1723 3.95554C35.4145 3.82413 35.6847 3.75768 35.9844 3.75768C36.4465 3.75768 36.826 3.90681 37.1213 4.20802C37.4166 4.50775 37.5643 4.88721 37.5643 5.34492C37.5643 5.80707 37.4151 6.19095 37.1169 6.49511C36.8186 6.79927 36.4436 6.95135 35.9903 6.95135C35.7098 6.95135 35.4425 6.88786 35.1886 6.76088C34.9346 6.6339 34.7412 6.44934 34.6098 6.20424C34.4769 5.95914 34.4104 5.66237 34.4104 5.31096Z" fill="#23354B" fill-opacity="0.72"/>
<path d="M37.8138 3.8256H38.2627V3.59675C38.2627 3.33836 38.2893 3.14789 38.3439 3.02091C38.3985 2.89393 38.5004 2.79058 38.6466 2.71085C38.7927 2.63112 38.9788 2.59273 39.2032 2.59273C39.4335 2.59273 39.6595 2.62669 39.8794 2.69608L39.7702 3.2601C39.6417 3.2291 39.5177 3.21286 39.3996 3.21286C39.2815 3.21286 39.1988 3.24091 39.1471 3.29554C39.0954 3.35017 39.0703 3.455 39.0703 3.61003V3.8256H39.6757V4.46197H39.0703V6.88196H38.2627V4.46197H37.8138V3.8256Z" fill="#23354B" fill-opacity="0.72"/>
<path d="M40.1009 6.88196V3.8256H40.9085V6.88196H40.1009ZM40.1009 3.41218V2.6636H40.9085V3.41218H40.1009Z" fill="#23354B" fill-opacity="0.72"/>
<path d="M44.4876 6.88196H43.6785V5.32277C43.6785 4.99204 43.6622 4.77942 43.6268 4.68197C43.5928 4.586 43.5367 4.5107 43.4585 4.45607C43.3817 4.40291 43.2872 4.37634 43.1779 4.37634C43.0392 4.37634 42.9122 4.41473 42.8014 4.4915C42.6907 4.56828 42.6139 4.66868 42.5726 4.79566C42.5312 4.92264 42.5106 5.15593 42.5106 5.49848V6.88196H41.7029V3.8256H42.453V4.27446C42.7202 3.93043 43.0554 3.75768 43.46 3.75768C43.6386 3.75768 43.8025 3.79017 43.9502 3.85366C44.0978 3.91862 44.2085 3.99983 44.2853 4.10023C44.3606 4.19916 44.4138 4.31285 44.4433 4.43983C44.4728 4.56533 44.4876 4.74694 44.4876 4.98318V6.88196Z" fill="#23354B" fill-opacity="0.72"/>
<path d="M46.9637 5.41432C46.8603 5.44975 46.6964 5.49109 46.472 5.53834C46.2476 5.58559 46.1014 5.63284 46.032 5.68009C45.9257 5.75391 45.874 5.84841 45.874 5.96357C45.874 6.07726 45.9154 6.17471 45.9995 6.2574C46.0852 6.34008 46.1915 6.38142 46.3229 6.38142C46.4676 6.38142 46.6079 6.3327 46.7393 6.23673C46.8382 6.16438 46.9017 6.07579 46.9327 5.96948C46.9534 5.90008 46.9637 5.76868 46.9637 5.57525V5.41432ZM45.8829 4.75875L45.1491 4.62587C45.2303 4.33057 45.3735 4.11204 45.5743 3.9703C45.7751 3.82856 46.0748 3.75768 46.472 3.75768C46.8323 3.75768 47.101 3.8005 47.2782 3.88466C47.4539 3.9703 47.5779 4.07956 47.6503 4.21097C47.7226 4.34238 47.758 4.58305 47.758 4.93445L47.7492 5.87794C47.7492 6.14666 47.7625 6.34451 47.7891 6.47149C47.8142 6.59994 47.8629 6.73578 47.9338 6.88196H47.1335C47.1128 6.8288 47.0862 6.74907 47.0567 6.64276C47.0419 6.59552 47.0331 6.56303 47.0272 6.54827C46.8899 6.68263 46.7422 6.78303 46.5842 6.85095C46.4262 6.91739 46.2594 6.95135 46.0807 6.95135C45.7663 6.95135 45.5182 6.86571 45.3366 6.69444C45.1565 6.52464 45.0649 6.30907 45.0649 6.04773C45.0649 5.87498 45.1063 5.72143 45.1889 5.58559C45.2716 5.44975 45.3868 5.3464 45.5359 5.27553C45.6836 5.20318 45.8991 5.13969 46.1782 5.08653C46.5562 5.01566 46.819 4.94922 46.9637 4.88868V4.80748C46.9637 4.65244 46.9253 4.54171 46.8485 4.47526C46.7717 4.40882 46.6271 4.37634 46.4144 4.37634C46.2712 4.37634 46.159 4.40439 46.0778 4.4605C45.9966 4.5166 45.9316 4.61701 45.8829 4.75875Z" fill="#23354B" fill-opacity="0.72"/>
<path d="M51.3046 6.88196H50.497V5.32277C50.497 4.99204 50.4792 4.77942 50.4453 4.68197C50.4098 4.586 50.3537 4.5107 50.277 4.45607C50.1987 4.40291 50.1042 4.37634 49.9964 4.37634C49.8562 4.37634 49.7307 4.41473 49.6184 4.4915C49.5077 4.56828 49.4309 4.66868 49.3896 4.79566C49.3482 4.92264 49.329 5.15593 49.329 5.49848V6.88196H48.5199V3.8256H49.27V4.27446C49.5372 3.93043 49.8724 3.75768 50.2784 3.75768C50.4556 3.75768 50.6195 3.79017 50.7672 3.85366C50.9148 3.91862 51.027 3.99983 51.1023 4.10023C51.1776 4.19916 51.2308 4.31285 51.2603 4.43983C51.2898 4.56533 51.3046 4.74694 51.3046 4.98318V6.88196Z" fill="#23354B" fill-opacity="0.72"/>
<path d="M52.5818 8.04101V7.70141C52.7796 7.72356 52.9598 7.7339 53.1251 7.7339C53.2964 7.7339 53.4234 7.70289 53.5046 7.64088C53.5681 7.5951 53.6006 7.53605 53.6006 7.4637C53.6006 7.39725 53.5695 7.34115 53.5105 7.2939C53.4514 7.24517 53.3599 7.22155 53.2344 7.22155C53.1118 7.22155 52.9863 7.24074 52.8579 7.27913L52.9332 6.99417C53.0823 6.94249 53.2432 6.91592 53.416 6.91592C53.6552 6.91592 53.8383 6.96907 53.9623 7.0739C54.0878 7.18021 54.1498 7.30866 54.1498 7.46074C54.1498 7.62906 54.0804 7.76638 53.9431 7.87121C53.7571 8.01591 53.4898 8.08678 53.1428 8.08678C52.8948 8.08678 52.7088 8.07201 52.5818 8.04101ZM54.7596 4.72922L53.9623 4.87392C53.9357 4.71446 53.8752 4.59486 53.7807 4.51365C53.6847 4.43392 53.5622 4.39258 53.4101 4.39258C53.2093 4.39258 53.0483 4.46197 52.9287 4.60224C52.8092 4.74103 52.7486 4.97284 52.7486 5.29915C52.7486 5.66237 52.8092 5.9178 52.9317 6.06693C53.0528 6.21753 53.2167 6.29136 53.4219 6.29136C53.5755 6.29136 53.701 6.24854 53.7984 6.16142C53.8959 6.07431 53.9652 5.92371 54.0051 5.71109L54.7995 5.84545C54.7168 6.21015 54.5588 6.48625 54.3255 6.67229C54.0908 6.85833 53.7777 6.95135 53.385 6.95135C52.9376 6.95135 52.5818 6.80961 52.316 6.5276C52.0502 6.24706 51.9173 5.85579 51.9173 5.35673C51.9173 4.85177 52.0502 4.45902 52.3175 4.17849C52.5832 3.89795 52.9435 3.75768 53.3983 3.75768C53.7704 3.75768 54.0671 3.83742 54.2857 3.99688C54.5056 4.15782 54.6636 4.40144 54.7596 4.72922Z" fill="#23354B" fill-opacity="0.72"/>
<path d="M57.029 5.41432C56.9256 5.44975 56.7617 5.49109 56.5373 5.53834C56.3129 5.58559 56.1652 5.63284 56.0973 5.68009C55.991 5.75391 55.9378 5.84841 55.9378 5.96357C55.9378 6.07726 55.9806 6.17471 56.0648 6.2574C56.149 6.34008 56.2568 6.38142 56.3867 6.38142C56.5329 6.38142 56.6716 6.3327 56.8045 6.23673C56.902 6.16438 56.9669 6.07579 56.998 5.96948C57.0186 5.90008 57.029 5.76868 57.029 5.57525V5.41432ZM55.9467 4.75875L55.2129 4.62587C55.2956 4.33057 55.4373 4.11204 55.6396 3.9703C55.8404 3.82856 56.1401 3.75768 56.5373 3.75768C56.8976 3.75768 57.1663 3.8005 57.342 3.88466C57.5192 3.9703 57.6432 4.07956 57.7155 4.21097C57.7864 4.34238 57.8233 4.58305 57.8233 4.93445L57.8145 5.87794C57.8145 6.14666 57.8278 6.34451 57.8528 6.47149C57.8794 6.59994 57.9282 6.73578 57.999 6.88196H57.1988C57.1781 6.8288 57.1515 6.74907 57.1205 6.64276C57.1072 6.59552 57.0984 6.56303 57.0925 6.54827C56.9537 6.68263 56.806 6.78303 56.6495 6.85095C56.4915 6.91739 56.3247 6.95135 56.146 6.95135C55.8315 6.95135 55.5835 6.86571 55.4019 6.69444C55.2202 6.52464 55.1302 6.30907 55.1302 6.04773C55.1302 5.87498 55.1715 5.72143 55.2542 5.58559C55.3369 5.44975 55.4521 5.3464 55.5997 5.27553C55.7488 5.20318 55.9629 5.13969 56.2435 5.08653C56.6214 5.01566 56.8828 4.94922 57.029 4.88868V4.80748C57.029 4.65244 56.9906 4.54171 56.9138 4.47526C56.837 4.40882 56.6923 4.37634 56.4797 4.37634C56.335 4.37634 56.2228 4.40439 56.1431 4.4605C56.0619 4.5166 55.9969 4.61701 55.9467 4.75875Z" fill="#23354B" fill-opacity="0.72"/>
<path d="M59.9923 3.8256V4.47083H59.4401V5.70223C59.4401 5.95176 59.4445 6.09646 59.4548 6.1378C59.4667 6.17914 59.4903 6.2131 59.5272 6.23968C59.5641 6.26773 59.6099 6.28102 59.6645 6.28102C59.7383 6.28102 59.8476 6.25444 59.9893 6.20277L60.0587 6.83028C59.8698 6.91001 59.6571 6.95135 59.4194 6.95135C59.2732 6.95135 59.1418 6.92625 59.0252 6.87753C58.9085 6.8288 58.8229 6.76531 58.7668 6.68853C58.7136 6.61028 58.6753 6.50545 58.6546 6.37256C58.6369 6.27807 58.628 6.08908 58.628 5.80264V4.47083H58.2574V3.8256H58.628V3.21876L59.4401 2.74776V3.8256H59.9923Z" fill="#23354B" fill-opacity="0.72"/>
<path d="M62.9084 5.3021C62.9084 5.64613 62.9763 5.90008 63.1121 6.06398C63.248 6.22787 63.4148 6.30907 63.6097 6.30907C63.7972 6.30907 63.9537 6.23377 64.0792 6.08317C64.2033 5.93257 64.2653 5.68599 64.2653 5.34197C64.2653 5.02157 64.2018 4.78385 64.0733 4.62882C63.9449 4.47379 63.7854 4.39553 63.5949 4.39553C63.3971 4.39553 63.2347 4.47231 63.1033 4.62439C62.9733 4.77647 62.9084 5.00237 62.9084 5.3021ZM62.1081 3.8256H62.8611V4.27446C62.96 4.12238 63.0914 3.99688 63.2583 3.9009C63.4251 3.80493 63.6112 3.75768 63.8149 3.75768C64.1693 3.75768 64.4705 3.89647 64.7171 4.17406C64.9651 4.45311 65.0891 4.83996 65.0891 5.33754C65.0891 5.84693 64.9636 6.24411 64.7141 6.52612C64.4661 6.80961 64.1634 6.95135 63.809 6.95135C63.6392 6.95135 63.4871 6.91739 63.3498 6.85095C63.2125 6.78303 63.0678 6.66786 62.9172 6.50545V8.04396H62.1081V3.8256Z" fill="#23354B" fill-opacity="0.72"/>
<path d="M67.5165 5.09244C67.5106 4.85768 67.4501 4.6805 67.3349 4.55795C67.2197 4.43687 67.0795 4.37634 66.9156 4.37634C66.7384 4.37634 66.5922 4.43983 66.4771 4.56828C66.3634 4.69674 66.3058 4.87096 66.3073 5.09244H67.5165ZM67.4707 5.90894L68.2754 6.04478C68.1721 6.34008 68.0082 6.56451 67.7852 6.71954C67.5623 6.8731 67.2817 6.95135 66.9466 6.95135C66.415 6.95135 66.0223 6.77712 65.7669 6.43015C65.5661 6.15257 65.4657 5.80116 65.4657 5.3774C65.4657 4.87096 65.5971 4.47379 65.8614 4.18735C66.1271 3.9009 66.4608 3.75768 66.8669 3.75768C67.3201 3.75768 67.6789 3.90681 67.9417 4.20802C68.2046 4.50775 68.3301 4.96694 68.3197 5.58707H66.294C66.2999 5.82626 66.3648 6.01378 66.4889 6.14666C66.6144 6.27954 66.7694 6.34599 66.9554 6.34599C67.0824 6.34599 67.1887 6.31203 67.2744 6.24263C67.3615 6.17471 67.4264 6.0625 67.4707 5.90894Z" fill="#23354B" fill-opacity="0.72"/>
<path d="M69.7225 6.88196H68.9133V3.8256H69.6649V4.26117C69.7933 4.05594 69.9085 3.9201 70.0118 3.85513C70.1137 3.79017 70.2304 3.75768 70.3618 3.75768C70.5449 3.75768 70.722 3.80789 70.8933 3.90976L70.6438 4.61405C70.5065 4.52694 70.381 4.48265 70.2628 4.48265C70.1506 4.48265 70.0547 4.51365 69.9764 4.57566C69.8967 4.63768 69.8347 4.75137 69.7904 4.91378C69.7446 5.0762 69.7225 5.41875 69.7225 5.93847V6.88196Z" fill="#23354B" fill-opacity="0.72"/>
<path d="M30.3723 14.0016V9.78327H31.1799V14.0016H30.3723Z" fill="#23354B" fill-opacity="0.72"/>
<path d="M33.6648 12.534C33.5615 12.5694 33.3976 12.6108 33.1731 12.658C32.9487 12.7067 32.8025 12.7525 32.7331 12.7998C32.6283 12.8736 32.5752 12.9696 32.5752 13.0847C32.5752 13.1969 32.618 13.2944 32.7021 13.3771C32.7863 13.4598 32.8941 13.5011 33.024 13.5011C33.1702 13.5011 33.309 13.4538 33.4404 13.3579C33.5393 13.284 33.6028 13.1955 33.6338 13.0892C33.6545 13.0212 33.6648 12.8898 33.6648 12.6949V12.534ZM32.584 11.8784L31.8502 11.7455C31.9329 11.4502 32.0746 11.2317 32.2754 11.09C32.4777 10.9482 32.776 10.8774 33.1731 10.8774C33.5334 10.8774 33.8021 10.9202 33.9793 11.0058C34.155 11.09 34.2805 11.1992 34.3514 11.3306C34.4237 11.462 34.4592 11.7027 34.4592 12.0541L34.4503 12.9976C34.4503 13.2663 34.4636 13.4642 34.4902 13.5926C34.5153 13.7196 34.564 13.8555 34.6349 14.0016H33.8346C33.8139 13.9485 33.7888 13.8687 33.7578 13.7624C33.7445 13.7152 33.7342 13.6842 33.7283 13.6679C33.591 13.8023 33.4433 13.9027 33.2854 13.9706C33.1288 14.0371 32.9605 14.071 32.7819 14.071C32.4674 14.071 32.2193 13.9854 32.0392 13.8156C31.8576 13.6443 31.766 13.4287 31.766 13.1674C31.766 12.9947 31.8074 12.8411 31.8901 12.7053C31.9728 12.5709 32.0879 12.4675 32.237 12.3952C32.3862 12.3229 32.6003 12.2608 32.8808 12.2062C33.2573 12.1353 33.5201 12.0689 33.6648 12.0084V11.9271C33.6648 11.7721 33.6264 11.6614 33.5511 11.5949C33.4729 11.5285 33.3297 11.496 33.1156 11.496C32.9723 11.496 32.8601 11.5241 32.7789 11.5802C32.6992 11.6378 32.6342 11.7367 32.584 11.8784Z" fill="#23354B" fill-opacity="0.72"/>
<path d="M36.8349 9.78327H37.6868V12.0689C37.6868 12.4306 37.6972 12.6654 37.7179 12.7732C37.7548 12.9459 37.8419 13.0847 37.9777 13.1896C38.1165 13.2944 38.304 13.3461 38.5417 13.3461C38.7824 13.3461 38.9655 13.2959 39.088 13.1984C39.2106 13.0995 39.2844 12.9769 39.3095 12.8337C39.3346 12.6905 39.3464 12.4513 39.3464 12.1176V9.78327H40.1984V11.9995C40.1984 12.5059 40.1747 12.8632 40.129 13.0729C40.0832 13.2811 39.999 13.4583 39.875 13.6015C39.751 13.7462 39.5856 13.8599 39.3789 13.9455C39.1707 14.0312 38.9005 14.074 38.5668 14.074C38.1638 14.074 37.8581 14.0267 37.6514 13.9337C37.4417 13.8407 37.2779 13.7211 37.1568 13.572C37.0357 13.4228 36.9575 13.2678 36.9191 13.1039C36.863 12.8632 36.8349 12.5059 36.8349 12.0335V9.78327Z" fill="#23354B" fill-opacity="0.72"/>
<path d="M43.8394 14.0016H43.0317V12.4424C43.0317 12.1132 43.014 11.8991 42.9801 11.8016C42.9446 11.7057 42.8885 11.6304 42.8117 11.5757C42.7335 11.5226 42.6405 11.496 42.5312 11.496C42.3909 11.496 42.2654 11.5344 42.1547 11.6112C42.0425 11.688 41.9672 11.7898 41.9258 11.9168C41.883 12.0423 41.8638 12.2771 41.8638 12.6181V14.0016H41.0547V10.9468H41.8062V11.3956C42.072 11.0501 42.4086 10.8774 42.8132 10.8774C42.9919 10.8774 43.1543 10.9098 43.3019 10.9733C43.4496 11.0383 43.5618 11.1195 43.6371 11.2199C43.7124 11.3188 43.7656 11.4325 43.7951 11.5595C43.8246 11.6865 43.8394 11.8666 43.8394 12.1028V14.0016Z" fill="#23354B" fill-opacity="0.72"/>
<path d="M44.6308 14.0016V10.9468H45.4385V14.0016H44.6308ZM44.6308 10.5319V9.78327H45.4385V10.5319H44.6308Z" fill="#23354B" fill-opacity="0.72"/>
<path d="M47.2191 10.5717L47.6163 9.7124H48.5228L47.7314 10.5717H47.2191ZM46.8795 12.4735C46.8795 12.7776 46.9518 13.0094 47.0951 13.1704C47.2383 13.3313 47.4169 13.4125 47.6281 13.4125C47.8392 13.4125 48.0164 13.3313 48.1581 13.1704C48.3014 13.0094 48.3722 12.7747 48.3722 12.469C48.3722 12.1693 48.3014 11.939 48.1581 11.778C48.0164 11.6171 47.8392 11.5359 47.6281 11.5359C47.4169 11.5359 47.2383 11.6171 47.0951 11.778C46.9518 11.939 46.8795 12.1708 46.8795 12.4735ZM46.0512 12.4306C46.0512 12.1619 46.1176 11.902 46.249 11.651C46.3819 11.4 46.5694 11.2081 46.8116 11.0752C47.0552 10.9438 47.3254 10.8774 47.6251 10.8774C48.0873 10.8774 48.4652 11.028 48.762 11.3277C49.0573 11.6274 49.205 12.0069 49.205 12.4661C49.205 12.9282 49.0558 13.3106 48.7576 13.6148C48.4593 13.9189 48.0828 14.071 47.631 14.071C47.3505 14.071 47.0832 14.0075 46.8293 13.8806C46.5753 13.7551 46.3819 13.569 46.249 13.3239C46.1176 13.0803 46.0512 12.782 46.0512 12.4306Z" fill="#23354B" fill-opacity="0.72"/>
<path d="M51.4212 14.0016V9.78327H54.5485V10.4979H52.2732V11.4325H54.3905V12.1427H52.2732V13.2914H54.6297V14.0016H51.4212Z" fill="#23354B" fill-opacity="0.72"/>
<path d="M57.3272 14.0016V13.5439C57.2165 13.7078 57.0703 13.8363 56.8887 13.9293C56.7071 14.0238 56.5166 14.071 56.3143 14.071C56.1091 14.071 55.926 14.0267 55.7621 13.9352C55.5997 13.8451 55.4816 13.7196 55.4078 13.5557C55.3354 13.3933 55.2985 13.1674 55.2985 12.8795V10.9468H56.1076V12.3509C56.1076 12.7806 56.1224 13.0434 56.1519 13.1408C56.1815 13.2368 56.2361 13.3136 56.3143 13.3697C56.3941 13.4273 56.493 13.4553 56.6141 13.4553C56.7514 13.4553 56.8754 13.4169 56.9847 13.3416C57.0939 13.2663 57.1692 13.1718 57.2091 13.0596C57.2504 12.9474 57.2696 12.6728 57.2696 12.2357V10.9468H58.0788V14.0016H57.3272Z" fill="#23354B" fill-opacity="0.72"/>
<path d="M59.6601 14.0016H58.851V10.9468H59.6025V11.3808C59.731 11.1756 59.8461 11.0398 59.9495 10.9748C60.0514 10.9098 60.168 10.8774 60.2994 10.8774C60.4825 10.8774 60.6597 10.9276 60.8309 11.0294L60.5814 11.7352C60.4441 11.6466 60.3186 11.6023 60.2005 11.6023C60.0883 11.6023 59.9923 11.6333 59.914 11.6968C59.8343 11.7588 59.7723 11.871 59.728 12.0335C59.6822 12.1973 59.6601 12.5384 59.6601 13.0581V14.0016Z" fill="#23354B" fill-opacity="0.72"/>
<path d="M61.7907 12.4735C61.7907 12.7776 61.863 13.0094 62.0077 13.1704C62.151 13.3313 62.3281 13.4125 62.5393 13.4125C62.7504 13.4125 62.9276 13.3313 63.0708 13.1704C63.2126 13.0094 63.2849 12.7747 63.2849 12.469C63.2849 12.1693 63.2126 11.939 63.0708 11.778C62.9276 11.6171 62.7504 11.5359 62.5393 11.5359C62.3281 11.5359 62.151 11.6171 62.0077 11.778C61.863 11.939 61.7907 12.1708 61.7907 12.4735ZM60.9624 12.4306C60.9624 12.1619 61.0288 11.902 61.1602 11.651C61.2931 11.4 61.4806 11.2081 61.7243 11.0752C61.9664 10.9438 62.2366 10.8774 62.5363 10.8774C62.9985 10.8774 63.3779 11.028 63.6732 11.3277C63.9685 11.6274 64.1162 12.0069 64.1162 12.4661C64.1162 12.9282 63.9671 13.3106 63.6688 13.6148C63.3705 13.9189 62.9955 14.071 62.5422 14.071C62.2617 14.071 61.9945 14.0075 61.7405 13.8806C61.4865 13.7551 61.2931 13.569 61.1602 13.3239C61.0288 13.0803 60.9624 12.782 60.9624 12.4306Z" fill="#23354B" fill-opacity="0.72"/>
<path d="M65.4967 12.4218C65.4967 12.7658 65.5646 13.0198 65.7005 13.1836C65.8363 13.3475 66.0032 13.4287 66.198 13.4287C66.3856 13.4287 66.5421 13.3534 66.6676 13.2028C66.7916 13.0522 66.8536 12.8057 66.8536 12.4631C66.8536 12.1427 66.7901 11.905 66.6617 11.7485C66.5332 11.5935 66.3737 11.5167 66.1833 11.5167C65.9869 11.5167 65.823 11.592 65.6916 11.7441C65.5617 11.8976 65.4967 12.1235 65.4967 12.4218ZM64.6964 10.9468H65.4509V11.3956C65.5484 11.2421 65.6798 11.1165 65.8466 11.0206C66.0135 10.9246 66.1995 10.8774 66.4033 10.8774C66.7576 10.8774 67.0588 11.0161 67.3054 11.2937C67.5535 11.5728 67.6775 11.9596 67.6775 12.4572C67.6775 12.9666 67.552 13.3638 67.3025 13.6473C67.0544 13.9293 66.7517 14.071 66.3974 14.071C66.2276 14.071 66.074 14.0371 65.9382 13.9706C65.8009 13.9027 65.6562 13.7875 65.5056 13.6251V15.1636H64.6964V10.9468Z" fill="#23354B" fill-opacity="0.72"/>
<path d="M70.1049 12.2121C70.099 11.9788 70.0384 11.8002 69.9233 11.6791C69.8081 11.5565 69.6678 11.496 69.5039 11.496C69.3267 11.496 69.1806 11.5595 69.0654 11.688C68.9517 11.8179 68.8941 11.9921 68.8956 12.2121H70.1049ZM70.0591 13.0301L70.8638 13.1645C70.7604 13.4598 70.5965 13.6857 70.3736 13.8392C70.1506 13.9942 69.8701 14.071 69.5349 14.071C69.0034 14.071 68.6106 13.8968 68.3552 13.5498C68.1529 13.2722 68.054 12.9208 68.054 12.4971C68.054 11.9906 68.1854 11.5935 68.4497 11.307C68.7155 11.0206 69.0492 10.8774 69.4552 10.8774C69.9085 10.8774 70.2673 11.028 70.5301 11.3277C70.7929 11.6274 70.9184 12.0881 70.9081 12.7067H68.8823C68.8882 12.9474 68.9532 13.1334 69.0772 13.2663C69.2027 13.4007 69.3577 13.4671 69.5438 13.4671C69.6708 13.4671 69.7771 13.4317 69.8627 13.3638C69.9484 13.2944 70.0148 13.1822 70.0591 13.0301Z" fill="#23354B" fill-opacity="0.72"/>
<path d="M73.2232 12.534C73.1199 12.5694 72.956 12.6108 72.7315 12.658C72.5071 12.7067 72.3595 12.7525 72.2915 12.7998C72.1852 12.8736 72.1321 12.9696 72.1321 13.0847C72.1321 13.1969 72.1749 13.2944 72.259 13.3771C72.3432 13.4598 72.451 13.5011 72.5809 13.5011C72.7271 13.5011 72.8659 13.4538 72.9988 13.3579C73.0962 13.284 73.1612 13.1955 73.1922 13.0892C73.2129 13.0212 73.2232 12.8898 73.2232 12.6949V12.534ZM72.1409 11.8784L71.4071 11.7455C71.4898 11.4502 71.6315 11.2317 71.8338 11.09C72.0346 10.9482 72.3344 10.8774 72.7315 10.8774C73.0918 10.8774 73.3605 10.9202 73.5362 11.0058C73.7134 11.09 73.8374 11.1992 73.9098 11.3306C73.9807 11.462 74.0176 11.7027 74.0176 12.0541L74.0087 12.9976C74.0087 13.2663 74.022 13.4642 74.0471 13.5926C74.0737 13.7196 74.1224 13.8555 74.1933 14.0016H73.393C73.3723 13.9485 73.3458 13.8687 73.3148 13.7624C73.3015 13.7152 73.2926 13.6842 73.2867 13.6679C73.1479 13.8023 73.0003 13.9027 72.8437 13.9706C72.6858 14.0371 72.5189 14.071 72.3403 14.071C72.0258 14.071 71.7777 13.9854 71.5961 13.8156C71.4145 13.6443 71.3244 13.4287 71.3244 13.1674C71.3244 12.9947 71.3658 12.8411 71.4484 12.7053C71.5311 12.5709 71.6463 12.4675 71.794 12.3952C71.9431 12.3229 72.1572 12.2608 72.4377 12.2062C72.8157 12.1353 73.077 12.0689 73.2232 12.0084V11.9271C73.2232 11.7721 73.1848 11.6614 73.108 11.5949C73.0313 11.5285 72.8866 11.496 72.674 11.496C72.5293 11.496 72.417 11.5241 72.3373 11.5802C72.2561 11.6378 72.1911 11.7367 72.1409 11.8784Z" fill="#23354B" fill-opacity="0.72"/>
</svg>
