<svg width="112" height="18" viewBox="0 0 112 18" fill="none" xmlns="http://www.w3.org/2000/svg">
<path d="M0 18H9.00098C13.9512 18 17.9931 17.9941 17.9873 17.9883C17.9814 17.9824 17.8373 17.9031 17.6668 17.8121C15.3122 16.5259 13.5867 14.2737 12.8959 11.584C12.6725 10.7119 12.5961 10.1041 12.5961 9.1615C12.5961 8.43328 12.6225 8.10734 12.7313 7.48777C13.0958 5.40587 14.1835 3.41207 15.7267 2.00555C16.5792 1.22741 17.6757 0.537357 18.7016 0.132137L19.0338 0.00293638L0 0V18ZM8.59238 3.73507C8.71584 4.05807 12.4638 14.3383 12.4638 14.3471C12.4638 14.353 11.7995 14.356 10.9911 14.353L9.51541 14.3442L9.12738 13.2137L8.73642 12.0832H5.87033L5.10016 14.3442L3.6245 14.353L2.14589 14.3589L2.2135 14.1768C2.25171 14.0741 3.13359 11.6574 4.1742 8.80326L6.07022 3.61175H8.54535L8.59238 3.73507Z" fill="#23354B" fill-opacity="0.72"/>
<path d="M6.86989 8.6124C6.63178 9.31419 6.43777 9.8956 6.43777 9.9044C6.43777 9.91615 6.82579 9.92496 7.302 9.92496H8.1633L7.74294 8.6447C7.51365 7.93997 7.3167 7.35856 7.31082 7.35269C7.30494 7.34682 7.10505 7.91354 6.86989 8.6124Z" fill="#23354B" fill-opacity="0.72"/>
<path d="M25.5889 0.10571C26.7471 0.557912 27.9435 1.35954 28.8577 2.29918C30.3569 3.84078 31.3123 5.83458 31.618 8.06036C31.6915 8.60065 31.6944 9.87504 31.618 10.4095C31.3887 12.0744 30.8067 13.5602 29.8572 14.9051C29.0106 16.106 27.8201 17.1484 26.5002 17.8444L26.2062 18H45.0636V0L25.3244 0.00293638L25.5889 0.10571ZM39.0081 3.58238C40.1457 3.72333 41.0981 4.16085 41.8536 4.88613C42.0212 5.04763 42.2416 5.29135 42.3445 5.42936C42.5268 5.66721 42.8295 6.2075 42.8001 6.23393C42.7649 6.26623 40.4896 7.84894 40.4632 7.85775C40.4485 7.86362 40.3574 7.70799 40.2603 7.50832C40.1104 7.19119 40.0634 7.12365 39.8635 6.92985C39.4696 6.53931 39.0051 6.35432 38.3614 6.32202C37.7176 6.29266 37.2238 6.44829 36.7652 6.82708C35.8275 7.60228 35.557 9.29951 36.1714 10.5563C36.4918 11.2111 37.0503 11.6897 37.6853 11.8542C37.9175 11.9129 38.5025 11.9217 38.7582 11.8659C39.5255 11.7015 40.0428 11.2757 40.3191 10.5798C40.3662 10.4623 40.4132 10.3654 40.4279 10.3654C40.4397 10.3654 41.0041 10.6914 41.6831 11.0907C42.7649 11.7279 42.9148 11.8248 42.9001 11.8777C42.8531 12.0362 42.612 12.5031 42.4709 12.7057C42.1799 13.1285 41.6684 13.5866 41.1422 13.8949C40.8365 14.077 40.2545 14.3178 39.8488 14.4352C38.4408 14.8405 37.068 14.7377 35.8892 14.1357C34.5576 13.4574 33.5522 12.2682 33.0584 10.7971C32.6439 9.56085 32.6733 8.25122 33.1407 7.02969C33.8433 5.18564 35.5012 3.86427 37.4501 3.59706C37.794 3.55008 38.673 3.54127 39.0081 3.58238Z" fill="#23354B" fill-opacity="0.72"/>
<path d="M21.5912 3.86428C20.9769 3.95237 20.5859 4.06102 20.192 4.26069C18.4988 5.1093 17.5111 6.92986 17.5111 9.20555C17.5111 10.3155 17.7228 11.2287 18.1843 12.1272C18.881 13.4809 20.0097 14.3119 21.4354 14.5233C21.8734 14.5879 22.7289 14.5674 23.1198 14.4822C23.937 14.306 24.5778 13.9478 25.2099 13.3194C26.0447 12.4825 26.5474 11.3726 26.7237 9.96901C26.7767 9.5403 26.7678 8.66526 26.7061 8.22186C26.5238 6.92105 26.0447 5.89625 25.254 5.1093C24.6249 4.48385 23.9488 4.11093 23.1198 3.93475C22.8935 3.88483 22.6965 3.87015 22.2526 3.86134C21.9381 3.85547 21.6412 3.8584 21.5912 3.86428Z" fill="#23354B" fill-opacity="0.72"/>
<path d="M55.4404 5.49983L55.3229 5.3677C55.0701 5.07993 54.7408 4.94779 54.3352 4.96835C53.5709 5.00946 53.0182 5.73474 53.0682 6.63621C53.0917 7.0708 53.224 7.38792 53.4974 7.67275C53.7825 7.97226 54.0912 8.1044 54.5027 8.1044C54.8878 8.1044 55.2023 7.97226 55.4316 7.71093L55.5492 7.57879L55.5845 7.73735C55.6462 8.01044 55.8726 8.13376 56.2194 8.08678L56.3958 8.06036L56.4046 7.71386C56.4105 7.38793 56.4105 7.37031 56.3546 7.37031C56.3223 7.37031 56.2812 7.34388 56.2635 7.31452C56.2459 7.27634 56.2341 6.66558 56.2341 5.53801V3.81729H55.4404V5.49983ZM54.9407 5.69951C55.1288 5.78466 55.2435 5.87863 55.3493 6.03719C55.4404 6.1752 55.4404 6.17814 55.4404 6.58042V6.9827L55.3434 7.11191C55.2905 7.17944 55.1818 7.27634 55.1024 7.32626C54.9819 7.39967 54.9231 7.41729 54.7379 7.42316C54.4763 7.43491 54.3528 7.3938 54.1735 7.2323C54.1088 7.17357 54.0177 7.05611 53.9765 6.97683C53.906 6.8447 53.8972 6.79478 53.8972 6.54812C53.8972 6.22806 53.9501 6.0783 54.1294 5.87863C54.344 5.64078 54.6585 5.57031 54.9407 5.69951Z" fill="#23354B" fill-opacity="0.72"/>
<path d="M62.3925 4.59543L63.1715 4.61305V3.81729H62.3749L62.3925 4.59543Z" fill="#23354B" fill-opacity="0.72"/>
<path d="M67.375 4.61305L68.154 4.59543L68.1716 3.81729H67.375V4.61305Z" fill="#23354B" fill-opacity="0.72"/>
<path d="M82.7785 4.61305L83.5575 4.59543L83.5751 3.81729H82.7785V4.61305Z" fill="#23354B" fill-opacity="0.72"/>
<path d="M85.5181 4.16085C85.4328 4.34878 85.3682 4.50734 85.374 4.51321C85.3799 4.51909 85.4887 4.55432 85.618 4.5925C85.7915 4.64535 85.8591 4.65416 85.8826 4.62773C85.9237 4.58956 86.3941 3.85253 86.3941 3.83197C86.3941 3.82316 86.2324 3.81729 86.0325 3.81729H85.6709L85.5181 4.16085Z" fill="#23354B" fill-opacity="0.72"/>
<path d="M93.5374 8.04568H94.2429V7.56998L94.3928 7.73442C94.4927 7.84307 94.6074 7.93116 94.7367 7.99282C94.9249 8.08678 94.9484 8.08972 95.2864 8.08972C95.6098 8.08972 95.6539 8.08385 95.8126 8.01044C96.3623 7.75204 96.6739 7.27341 96.7062 6.63328C96.7327 6.09298 96.571 5.64665 96.23 5.31778C96.1213 5.21501 95.9655 5.10342 95.8685 5.05644C95.7156 4.98597 95.6656 4.97716 95.3746 4.97716C95.0983 4.97716 95.0307 4.98597 94.9043 5.0447C94.6897 5.14453 94.5545 5.24437 94.4369 5.39706L94.3311 5.5292V3.81729H93.5374V8.04568ZM95.4922 5.74062C95.6509 5.84046 95.8126 6.05187 95.8655 6.23393C95.9273 6.44829 95.9096 6.7478 95.8273 6.92985C95.7244 7.15008 95.6215 7.2646 95.4422 7.35269C95.0836 7.53181 94.6368 7.40554 94.4075 7.06492C94.334 6.95628 94.3311 6.92985 94.3311 6.58336C94.3311 6.22512 94.334 6.21044 94.4163 6.08124C94.5251 5.91093 94.6632 5.77879 94.8161 5.69951C94.9954 5.60555 95.3011 5.62316 95.4922 5.74062Z" fill="#23354B" fill-opacity="0.72"/>
<path d="M90.6859 3.923C90.486 3.96117 90.142 4.09625 89.9833 4.19902C89.0603 4.7951 88.7399 5.9491 89.219 6.94747C89.4689 7.47602 89.9715 7.89005 90.5389 8.03393C90.8093 8.10147 91.362 8.08091 91.6265 7.98988C92.2174 7.78727 92.6995 7.29984 92.9053 6.69788C93.064 6.23099 93.064 5.79935 92.9023 5.32072C92.6965 4.6982 92.1851 4.17847 91.5971 3.99054C91.409 3.92887 90.8652 3.8907 90.6859 3.923ZM91.5325 4.75693C91.7618 4.87732 91.9293 5.05938 92.0557 5.32953C92.4026 6.05775 92.1233 6.96509 91.456 7.27634C91.312 7.34388 91.2503 7.35563 91.0092 7.35563C90.7505 7.35563 90.7123 7.34682 90.533 7.25873C90.2097 7.10016 89.948 6.75661 89.8598 6.38369C89.8099 6.16639 89.8187 5.76117 89.8775 5.56444C90.0068 5.11223 90.2596 4.82447 90.6506 4.67765C90.7241 4.65122 90.8564 4.64241 91.0533 4.64829C91.3238 4.65416 91.362 4.66297 91.5325 4.75693Z" fill="#23354B" fill-opacity="0.72"/>
<path d="M50.646 4.01403C50.6313 4.06101 50.2785 4.97716 49.867 6.05481C49.4584 7.13247 49.1203 8.02219 49.1203 8.031C49.1203 8.03981 49.3055 8.04274 49.5348 8.03981L49.9493 8.031L50.1286 7.53769L50.3079 7.04731H51.7571L51.9423 7.54649L52.1246 8.04568H52.9623L51.3985 3.93475H50.6783L50.646 4.01403ZM51.5719 6.3925L51.5925 6.46003H51.034C50.7106 6.46003 50.4725 6.44829 50.4725 6.43361C50.4725 6.41305 50.9252 5.15922 51.0193 4.92137C51.034 4.8832 51.1133 5.07994 51.2956 5.59674C51.4367 5.99902 51.5631 6.35726 51.5719 6.3925Z" fill="#23354B" fill-opacity="0.72"/>
<path d="M71.902 5.0212H71.5199V5.60848H71.8991L71.9079 6.58336C71.9167 7.67569 71.9197 7.69037 72.1313 7.90766C72.2607 8.04274 72.4517 8.1044 72.7251 8.1044C72.9221 8.1044 73.2631 8.03099 73.463 7.94584L73.5717 7.90179L73.4953 7.59934C73.4541 7.43197 73.4189 7.29102 73.413 7.28515C73.4071 7.27928 73.3513 7.2969 73.2836 7.32332C73.219 7.34975 73.1014 7.37031 73.022 7.37031C72.6987 7.37031 72.6957 7.35856 72.6957 6.38662V5.60848H73.3424V5.0212H72.6957V4.02283H71.902V5.0212Z" fill="#23354B" fill-opacity="0.72"/>
<path d="M103.12 5.02121H102.738V5.60848H103.117L103.135 7.59054L103.22 7.74323C103.447 8.15139 103.964 8.21599 104.711 7.93116L104.79 7.90179L104.714 7.59935C104.672 7.43197 104.637 7.29103 104.631 7.28515C104.625 7.27928 104.57 7.2969 104.502 7.32333C104.334 7.39086 104.087 7.38499 103.999 7.31452L103.929 7.25873L103.911 5.60848H104.561V5.02121H103.914V4.02284H103.12V5.02121Z" fill="#23354B" fill-opacity="0.72"/>
<path d="M58.4035 5.01827C58.1654 5.09462 57.9949 5.20327 57.8391 5.37651L57.7039 5.52627V5.02121H56.9984V8.04568H57.7921V6.21044L57.8803 6.06069C58.0331 5.79348 58.233 5.66721 58.5093 5.66721C58.7033 5.66721 58.815 5.7465 58.8974 5.93736C58.9473 6.04894 58.9532 6.17227 58.962 7.05318L58.9708 8.04568H59.7616V7.1354C59.7616 6.10473 59.7616 6.10767 59.9997 5.86982C60.1496 5.72007 60.2731 5.66721 60.4788 5.66721C60.6111 5.66721 60.6552 5.68189 60.7346 5.74649C60.9168 5.90212 60.9227 5.93149 60.9315 7.0385L60.9404 8.04568H61.7311V7.0385C61.7311 6.48646 61.7164 5.94617 61.7017 5.83752C61.6429 5.4323 61.4783 5.16216 61.2167 5.03589C61.0315 4.95074 60.667 4.94193 60.4142 5.01827C60.1731 5.08875 59.9027 5.27667 59.7792 5.45579L59.6969 5.57618L59.6087 5.40294C59.5059 5.19446 59.3589 5.06526 59.1619 5.00653C58.965 4.9478 58.6093 4.95367 58.4035 5.01827Z" fill="#23354B" fill-opacity="0.72"/>
<path d="M65.3291 5.01827C65.088 5.08581 64.8911 5.2062 64.7235 5.38238L64.5824 5.52627V5.02121H63.8769V8.04568H64.6706V6.20751L64.7529 6.07537C64.9175 5.81697 65.1674 5.67015 65.4349 5.66721C65.6348 5.66721 65.7553 5.73475 65.8347 5.89038C65.8847 5.99609 65.8905 6.08711 65.8994 7.02382L65.9082 8.04568H66.7019L66.693 6.86232C66.6842 5.69951 66.6813 5.67896 66.6137 5.50865C66.5196 5.27374 66.3521 5.09756 66.1522 5.02121C65.9493 4.9478 65.5848 4.94486 65.3291 5.01827Z" fill="#23354B" fill-opacity="0.72"/>
<path d="M69.521 5.00359C69.0683 5.12986 68.7831 5.44405 68.739 5.86102C68.7038 6.18989 68.8331 6.42186 69.1329 6.57455C69.1917 6.60392 69.4004 6.67733 69.5944 6.73899C70.2029 6.92398 70.3705 6.99152 70.4322 7.06787C70.5116 7.17064 70.5057 7.28809 70.4146 7.39674C70.2147 7.63459 69.618 7.57586 69.1094 7.26754C69.0153 7.21175 68.933 7.16477 68.9242 7.16477C68.9154 7.16477 68.8478 7.27048 68.7714 7.40261C68.6508 7.60229 68.6361 7.64633 68.6714 7.67863C68.7655 7.76966 69.08 7.9341 69.3005 8.00751C69.5151 8.07798 69.5768 8.08679 69.9913 8.08679C70.4969 8.08973 70.6439 8.05449 70.8937 7.8695C71.27 7.59054 71.3641 7.00914 71.0789 6.68907C70.9143 6.50115 70.6262 6.37488 69.9442 6.19576C69.5356 6.08712 69.421 5.97847 69.4886 5.75531C69.5151 5.66134 69.5503 5.62611 69.6473 5.57619C69.7502 5.5204 69.8032 5.51452 70.0119 5.5292C70.2558 5.54389 70.4734 5.62317 70.7174 5.78467L70.8114 5.84633L70.9584 5.6261C71.0407 5.50571 71.1083 5.39413 71.1083 5.37945C71.1083 5.29429 70.7174 5.08581 70.4175 5.00653C70.2088 4.95367 69.712 4.95074 69.521 5.00359Z" fill="#23354B" fill-opacity="0.72"/>
<path d="M75.4001 5.0124C75.1797 5.08875 74.8945 5.32072 74.7417 5.54976C74.6976 5.61729 74.6946 5.61142 74.6946 5.32072V5.02121H73.9597V8.04568H74.7534V6.20457L74.8416 6.08124C74.9857 5.8845 75.2796 5.74062 75.6088 5.70539L75.7823 5.68777V4.96248H75.6588C75.5883 4.96542 75.4736 4.98597 75.4001 5.0124Z" fill="#23354B" fill-opacity="0.72"/>
<path d="M76.9904 4.99478C76.7199 5.04764 76.1996 5.26199 76.1497 5.34127C76.1408 5.35889 76.1849 5.47635 76.2496 5.60261L76.3672 5.83752L76.6641 5.68777C76.9492 5.54095 76.9669 5.53801 77.2491 5.52627C77.593 5.51158 77.7517 5.56444 77.8869 5.74062C77.9604 5.83752 77.9722 5.8845 77.9839 6.07243C77.9928 6.27798 77.9898 6.29266 77.9398 6.27211C77.5283 6.11354 76.8904 6.13997 76.5142 6.33083C76.1526 6.51289 75.9733 6.78891 75.9762 7.16476C75.9762 7.53475 76.1732 7.84307 76.5142 8.00751C76.7464 8.11909 77.1344 8.13671 77.4225 8.04861C77.6371 7.98401 77.9457 7.79902 78.0427 7.67569C78.0721 7.63752 78.1045 7.60522 78.1133 7.60522C78.1192 7.60522 78.1339 7.65808 78.1427 7.72268C78.178 7.98401 78.3279 8.08972 78.663 8.08972C78.9981 8.08679 78.9863 8.10147 78.9863 7.72268C78.9863 7.40261 78.9863 7.39674 78.9128 7.37031C78.8717 7.35563 78.8247 7.30865 78.81 7.26754C78.7923 7.22349 78.7806 6.91811 78.7806 6.58336C78.7806 6.24861 78.7659 5.91974 78.7512 5.84927C78.6483 5.41468 78.3367 5.11811 77.8634 5.00653C77.6635 4.95954 77.1991 4.95367 76.9904 4.99478ZM77.8399 6.67439L77.9722 6.71256L77.9898 7.17357L77.8575 7.2969C77.7017 7.44666 77.4872 7.52594 77.2344 7.52888C76.9257 7.52888 76.7229 7.34976 76.7229 7.07374C76.7229 6.86525 76.8787 6.70375 77.1491 6.63328C77.2667 6.60098 77.6753 6.62447 77.8399 6.67439Z" fill="#23354B" fill-opacity="0.72"/>
<path d="M80.4855 5.00946C80.0769 5.11517 79.6889 5.40881 79.5066 5.74649C79.1744 6.36607 79.2832 7.1677 79.7653 7.64926C80.0798 7.96346 80.4384 8.1044 80.9264 8.1044C81.3615 8.1044 81.6642 8.0075 81.9582 7.77846C82.0934 7.66982 82.3345 7.35562 82.3021 7.32626C82.2962 7.32039 82.1228 7.26166 81.9229 7.2L81.5525 7.08548L81.4614 7.19706C81.3262 7.35856 81.1557 7.42903 80.9088 7.42903C80.7383 7.42903 80.6824 7.41435 80.5531 7.34094C80.2826 7.18531 80.1327 6.89168 80.1327 6.51582C80.1327 6.00489 80.459 5.63784 80.9088 5.63784C81.1263 5.63784 81.3086 5.71419 81.4467 5.86394L81.5496 5.96965L81.9024 5.86394C82.0993 5.80522 82.2669 5.74943 82.2757 5.74062C82.308 5.70538 82.1728 5.50864 82.0082 5.35889C81.7142 5.0858 81.3673 4.96248 80.9117 4.96541C80.7677 4.96541 80.5737 4.98597 80.4855 5.00946Z" fill="#23354B" fill-opacity="0.72"/>
<path d="M85.2212 5.00946C84.5304 5.19445 84.0718 5.80522 84.0718 6.53931C84.0718 6.99151 84.2129 7.34094 84.5245 7.6522C84.8508 7.97814 85.1682 8.1044 85.6592 8.1044C86.2441 8.1044 86.6939 7.88417 86.979 7.4584C87.223 7.09135 87.3083 6.68907 87.2348 6.26329C87.126 5.63197 86.6968 5.16215 86.0854 5.00652C85.8679 4.95073 85.4328 4.95367 85.2212 5.00946ZM85.9384 5.67895C86.1148 5.75236 86.2353 5.86688 86.3353 6.05187C86.5763 6.50701 86.4352 7.10897 86.0325 7.34094C85.9031 7.41435 85.8473 7.42903 85.6768 7.42903C85.424 7.42903 85.2653 7.35856 85.1036 7.17357C84.9507 7.00032 84.8831 6.80065 84.886 6.51288C84.8919 6.00489 85.2212 5.63784 85.665 5.63784C85.7591 5.63784 85.8826 5.6584 85.9384 5.67895Z" fill="#23354B" fill-opacity="0.72"/>
<path d="M98.2113 5.00946C97.6292 5.16215 97.2059 5.61142 97.0795 6.21044C97.0237 6.46884 97.0266 6.6274 97.0795 6.8858C97.1442 7.18531 97.2765 7.43491 97.4881 7.64633C97.8027 7.96346 98.1613 8.1044 98.6522 8.1044C99.1284 8.1044 99.4664 7.98107 99.7692 7.70212C99.9809 7.50832 100.09 7.34682 100.034 7.31158C100.013 7.29983 99.8662 7.25285 99.7046 7.20881L99.4135 7.13246L99.2989 7.26166C98.9726 7.63164 98.3259 7.61696 98.0525 7.2323C97.9526 7.08841 97.8938 6.9504 97.8908 6.84763L97.8879 6.78303H100.24V6.53931C100.24 6.07243 100.101 5.73181 99.7869 5.41468C99.4635 5.09168 99.1284 4.95954 98.6375 4.96541C98.4935 4.96541 98.2994 4.98597 98.2113 5.00946ZM98.9609 5.59086C99.1843 5.68483 99.4165 5.99608 99.4165 6.20163V6.28385H98.6375C98.2083 6.28385 97.8585 6.2721 97.8585 6.26036C97.8585 6.24567 97.8791 6.16933 97.9026 6.08711C97.9496 5.92561 98.1348 5.69363 98.273 5.62316C98.4729 5.51745 98.7551 5.50571 98.9609 5.59086Z" fill="#23354B" fill-opacity="0.72"/>
<path d="M102.13 5.01827C101.892 5.10049 101.624 5.32659 101.483 5.56444C101.454 5.61436 101.448 5.57325 101.445 5.32072V5.02121H100.71V8.04568H101.504V6.17521L101.621 6.04013C101.792 5.84633 102.153 5.69658 102.444 5.69658H102.532V4.96248H102.409C102.338 4.96542 102.215 4.98891 102.13 5.01827Z" fill="#23354B" fill-opacity="0.72"/>
<path d="M105.884 5.02414C105.654 5.08287 105.228 5.26786 105.175 5.33246C105.155 5.35889 105.178 5.4323 105.263 5.60261L105.381 5.83752L105.675 5.68776C105.957 5.54388 105.984 5.53801 106.248 5.52626C106.413 5.51745 106.566 5.52626 106.627 5.54682C106.871 5.62903 107.001 5.82283 107.001 6.1106C107.001 6.26916 106.995 6.28678 106.951 6.26916C106.815 6.21631 106.492 6.16639 106.28 6.16639C105.654 6.16639 105.155 6.45122 105.016 6.8858C104.881 7.31745 105.102 7.80195 105.528 8.0075C105.66 8.06916 105.745 8.08972 105.963 8.09853C106.38 8.11908 106.733 7.98988 107.007 7.71386C107.121 7.60228 107.148 7.60228 107.148 7.71974C107.148 7.846 107.253 7.98695 107.403 8.05155C107.518 8.10147 107.574 8.10734 107.744 8.09266C107.856 8.08385 107.959 8.06623 107.974 8.05742C107.988 8.04861 108 7.89592 108 7.71974C108 7.40554 107.997 7.39673 107.93 7.37031C107.888 7.35562 107.841 7.31745 107.827 7.28515C107.806 7.24992 107.794 6.98564 107.794 6.60098C107.794 6.17226 107.783 5.92854 107.753 5.82871C107.639 5.39119 107.345 5.1181 106.877 5.00652C106.613 4.94486 106.154 4.95367 105.884 5.02414ZM106.854 6.67438L106.986 6.71256L107.004 7.17357L106.871 7.2969C106.716 7.44665 106.501 7.52887 106.251 7.52594C105.934 7.52594 105.737 7.3615 105.737 7.09135C105.737 6.76835 106.013 6.5951 106.486 6.62153C106.616 6.6274 106.78 6.65089 106.854 6.67438Z" fill="#23354B" fill-opacity="0.72"/>
<path d="M62.3777 8.04568H63.1714V5.02121H62.3777V8.04568Z" fill="#23354B" fill-opacity="0.72"/>
<path d="M67.375 8.04568H68.1687V5.02121H67.375V8.04568Z" fill="#23354B" fill-opacity="0.72"/>
<path d="M82.7785 8.04568H83.5722V5.02121H82.7785V8.04568Z" fill="#23354B" fill-opacity="0.72"/>
<path d="M51.6189 11.7132L51.4661 11.5517C51.372 11.4519 51.2426 11.355 51.1221 11.2962C50.9399 11.2082 50.9105 11.2023 50.6048 11.2023C50.2873 11.2023 50.2726 11.2052 50.0551 11.3139C49.1467 11.7602 48.9615 13.1843 49.7141 13.9272C49.9992 14.2091 50.2902 14.3266 50.7018 14.3295C51.0633 14.3295 51.372 14.1974 51.613 13.936C51.6806 13.8626 51.7453 13.801 51.7512 13.801C51.76 13.801 51.7659 13.845 51.7659 13.8979C51.7659 14.1504 51.9746 14.3148 52.295 14.3119C52.6007 14.3119 52.589 14.3236 52.589 13.9331C52.589 13.6571 52.5802 13.5954 52.5478 13.5954C52.5243 13.5954 52.4832 13.5661 52.4596 13.5308C52.4185 13.4721 52.4126 13.2548 52.4126 11.7543V10.0424H51.6189V11.7132ZM51.1339 11.9188C51.2838 11.9863 51.4278 12.1067 51.5337 12.2564C51.6189 12.368 51.6189 12.3768 51.6189 12.7791C51.6189 13.2372 51.6042 13.29 51.4249 13.4486C51.1721 13.6688 50.8252 13.7217 50.5371 13.5778C50.2285 13.4251 50.0786 13.1608 50.0756 12.7732C50.0756 12.5589 50.0874 12.4972 50.1609 12.3387C50.2491 12.1478 50.4137 11.9745 50.5724 11.9041C50.7047 11.8483 50.9928 11.8542 51.1339 11.9188Z" fill="#23354B" fill-opacity="0.72"/>
<path d="M70.879 11.9129C70.8878 13.7393 70.8907 13.7892 70.9495 13.9184C71.1347 14.3178 71.6198 14.4294 72.2665 14.2209C72.3958 14.1798 72.4076 14.168 72.3929 14.0976C72.384 14.0564 72.3605 13.9184 72.34 13.7922C72.3106 13.6013 72.2959 13.5661 72.2576 13.5837C72.2312 13.5954 72.1518 13.616 72.0783 13.6336C71.9078 13.6718 71.7903 13.6219 71.7197 13.478C71.6697 13.384 71.6668 13.2372 71.6668 11.7073V10.0424H70.8702L70.879 11.9129Z" fill="#23354B" fill-opacity="0.72"/>
<path d="M59.4412 10.1775C59.0473 10.2626 58.5887 10.5445 58.3359 10.8587C57.4952 11.9041 57.8656 13.5455 59.0708 14.121C59.3765 14.2679 59.5411 14.306 59.8792 14.3031C60.3848 14.3031 60.8786 14.124 61.2137 13.8245C61.3813 13.6747 61.5547 13.4457 61.5547 13.3723C61.5547 13.3458 60.9668 12.9788 60.9227 12.9788C60.9168 12.9788 60.8728 13.0434 60.8198 13.1227C60.7111 13.293 60.5876 13.3928 60.3554 13.5015C60.2113 13.569 60.1496 13.5807 59.9086 13.5807C59.6646 13.5807 59.6058 13.569 59.4588 13.5015C59.1266 13.3458 58.8621 13.017 58.7474 12.6147C58.6857 12.4033 58.7004 11.9276 58.7739 11.6956C58.8827 11.3491 59.2031 11.0085 59.5088 10.9057C59.6734 10.8499 60.0409 10.8411 60.2172 10.891C60.473 10.9586 60.717 11.1553 60.8669 11.4078C60.8933 11.4577 60.9227 11.446 61.1902 11.261C61.349 11.1494 61.4871 11.0555 61.493 11.0525C61.5312 11.0232 61.3931 10.8206 61.2137 10.6414C60.8669 10.292 60.4436 10.1305 59.8939 10.1334C59.7498 10.1334 59.5441 10.154 59.4412 10.1775Z" fill="#23354B" fill-opacity="0.72"/>
<path d="M65.4937 11.217H65.1116V11.8336H65.4908L65.4996 12.8085C65.5084 13.7276 65.5114 13.7951 65.5702 13.9184C65.7054 14.2121 65.9964 14.3501 66.4167 14.3207C66.6255 14.306 67.0164 14.2003 67.1311 14.1299C67.1605 14.1122 67.1487 14.0388 67.0899 13.8157C67.0488 13.6542 67.0076 13.5162 67.0047 13.5103C66.9988 13.5044 66.9429 13.522 66.8753 13.5485C66.7342 13.6042 66.4697 13.6101 66.3991 13.5543C66.3021 13.4809 66.2874 13.3635 66.2874 12.5941V11.8336H66.9341V11.217H66.2874V10.248H65.4937V11.217Z" fill="#23354B" fill-opacity="0.72"/>
<path d="M54.147 11.2346C53.4445 11.4196 52.9918 12.0157 52.9888 12.7586C52.9888 13.5073 53.4445 14.1034 54.1617 14.2855C54.5292 14.3794 55.0348 14.3295 55.3758 14.1651C55.6374 14.0359 56.0548 13.6072 55.9813 13.5396C55.9666 13.525 55.8167 13.478 55.6491 13.431C55.3493 13.3488 55.3434 13.3488 55.3052 13.4046C55.1435 13.6365 54.9289 13.7422 54.6291 13.7422C54.3822 13.7422 54.2499 13.6953 54.0853 13.5455C53.953 13.4251 53.8678 13.2783 53.8384 13.1168L53.8178 13.0082H56.1753V12.7498C56.1753 12.6088 56.1547 12.415 56.1312 12.3181C55.9931 11.7925 55.5698 11.3697 55.0436 11.2316C54.8261 11.1759 54.3645 11.1759 54.147 11.2346ZM54.9378 11.8307C55.1523 11.9422 55.2964 12.1243 55.3493 12.3592L55.3758 12.4796H53.8237V12.4091C53.8237 12.1654 54.1088 11.8453 54.3969 11.7719C54.5321 11.7367 54.8114 11.7661 54.9378 11.8307Z" fill="#23354B" fill-opacity="0.72"/>
<path d="M62.7011 11.2493C62.4777 11.308 61.9956 11.5253 61.9956 11.5693C61.9956 11.5869 62.1926 12.0274 62.2161 12.0626C62.219 12.0656 62.3013 12.0245 62.3954 11.9687C62.8598 11.6927 63.4213 11.6545 63.6829 11.8865C63.777 11.9716 63.8475 12.1595 63.8475 12.3445C63.8475 12.4943 63.8417 12.5119 63.7976 12.4943C63.5359 12.3945 63.0215 12.3622 62.7246 12.4238C62.1396 12.5471 61.7957 12.9347 61.8251 13.4339C61.8839 14.3237 63.0627 14.6467 63.8005 13.9742L63.9592 13.8303L63.9916 13.9654C64.0592 14.2326 64.2855 14.356 64.6236 14.309L64.8029 14.2855L64.8117 13.939C64.8176 13.6747 64.8117 13.5954 64.7823 13.5954C64.6618 13.5925 64.6559 13.5661 64.6383 12.8114C64.6236 12.136 64.6177 12.0714 64.553 11.907C64.4237 11.5781 64.1121 11.3227 63.727 11.2316C63.4595 11.17 62.9745 11.1759 62.7011 11.2493ZM63.6418 12.8848L63.8328 12.9347L63.8417 13.152C63.8505 13.3693 63.8505 13.3693 63.7388 13.4838C63.5771 13.6542 63.4272 13.7188 63.1803 13.7364C62.9186 13.754 62.8451 13.7364 62.7158 13.6219C62.5159 13.4457 62.5247 13.1256 62.7364 12.9759C62.9392 12.832 63.2949 12.7967 63.6418 12.8848Z" fill="#23354B" fill-opacity="0.72"/>
<path d="M68.4185 11.2052C68.0569 11.2904 67.6278 11.4607 67.5543 11.5517C67.5366 11.5752 67.5631 11.6633 67.6395 11.8248L67.7542 12.0685L67.9981 11.9393C68.3009 11.7778 68.445 11.7396 68.7301 11.7396C68.8947 11.7396 68.9858 11.7573 69.0682 11.7984C69.2945 11.9129 69.3739 12.0538 69.3739 12.3328V12.5031L69.2357 12.4591C69.0476 12.4003 68.4861 12.3739 68.298 12.415C67.8717 12.506 67.5631 12.7204 67.4308 13.014C67.3279 13.2431 67.3338 13.5543 67.4426 13.7775C67.6072 14.1122 67.9247 14.3031 68.3509 14.3237C68.7536 14.3442 69.1093 14.2091 69.3827 13.9361C69.4415 13.8773 69.4973 13.8303 69.5061 13.8303C69.515 13.8303 69.5208 13.8656 69.5208 13.9126C69.5208 14.03 69.6179 14.1886 69.7296 14.2561C69.8354 14.3178 70.1264 14.3354 70.294 14.2914L70.3733 14.2708V13.9478C70.3733 13.6277 70.3733 13.6219 70.2998 13.5954C70.2587 13.5808 70.2116 13.5338 70.1969 13.4927C70.1793 13.4486 70.1675 13.1344 70.1675 12.7879C70.1675 12.2447 70.1587 12.139 70.1088 11.9775C70 11.6369 69.7854 11.4166 69.418 11.2757C69.2739 11.2199 69.174 11.2052 68.8594 11.1993C68.6507 11.1935 68.4508 11.1964 68.4185 11.2052ZM69.2357 12.8907L69.3739 12.9259V13.155C69.3739 13.3576 69.365 13.3958 69.3004 13.475C69.2592 13.522 69.1446 13.6042 69.0446 13.6512C68.8947 13.7276 68.83 13.7423 68.6566 13.7423C68.3068 13.7423 68.1098 13.5837 68.1098 13.2989C68.1098 13.0963 68.248 12.9465 68.5214 12.8584C68.6184 12.8261 69.0593 12.8467 69.2357 12.8907Z" fill="#23354B" fill-opacity="0.72"/>
<path d="M77.8107 11.2287C77.5637 11.2992 77.3991 11.3902 77.2227 11.5576L77.0493 11.722L77.0317 11.2316H76.3262L76.3174 12.7498L76.3115 14.2708H77.1052V13.3752C77.1052 12.4121 77.1052 12.4209 77.2639 12.2065C77.3521 12.0832 77.6019 11.9276 77.7607 11.8923C78.0488 11.8307 78.2722 11.9775 78.3368 12.2741C78.3574 12.3651 78.3692 12.7879 78.3692 13.3458V14.2708H79.1687L79.154 13.1315C79.1423 11.9041 79.1335 11.8248 78.9747 11.5547C78.8836 11.402 78.7513 11.2933 78.5779 11.2316C78.4221 11.1788 78.0017 11.1759 77.8107 11.2287Z" fill="#23354B" fill-opacity="0.72"/>
<path d="M83.5428 11.2493C83.3106 11.308 82.8373 11.5282 82.8373 11.5723C82.8373 11.587 82.8902 11.7044 82.9549 11.8336L83.0725 12.0656L83.24 11.9657C83.681 11.6985 84.2689 11.6604 84.5246 11.8865C84.6187 11.9716 84.6892 12.1595 84.6892 12.3387C84.6892 12.4326 84.6834 12.509 84.6775 12.509C84.6716 12.509 84.6099 12.4884 84.5393 12.462C84.3394 12.3886 83.778 12.3739 83.5428 12.4326C83.1519 12.5325 82.8785 12.7263 82.7432 13.0052C82.6903 13.1109 82.6756 13.1902 82.6756 13.3752C82.6756 13.6718 82.7697 13.8803 82.9872 14.077C83.4164 14.4617 84.2336 14.4 84.6716 13.9507C84.798 13.8215 84.8362 13.8215 84.8362 13.9419C84.8362 14.0535 84.9332 14.2003 85.0479 14.262C85.1508 14.3148 85.4565 14.3325 85.6093 14.2914L85.6887 14.2708V13.9478C85.6887 13.6307 85.6858 13.6219 85.6182 13.5954C85.577 13.5808 85.53 13.5426 85.5153 13.5103C85.4947 13.475 85.4829 13.2108 85.4829 12.8232C85.4829 12.277 85.4741 12.1654 85.4241 12.0039C85.2948 11.587 85.0391 11.352 84.5805 11.2346C84.3247 11.167 83.825 11.1759 83.5428 11.2493ZM84.557 12.8995L84.6745 12.9406L84.6834 13.1608C84.6922 13.3811 84.6922 13.3811 84.5805 13.4927C84.407 13.663 84.216 13.7423 83.9602 13.7423C83.7192 13.7423 83.6192 13.7041 83.5017 13.5661C83.4399 13.4897 83.4252 13.4427 83.4252 13.3106C83.4252 13.152 83.4311 13.1374 83.5546 13.0228C83.6251 12.9524 83.7339 12.8848 83.7956 12.8672C83.9426 12.8261 84.4041 12.8437 84.557 12.8995Z" fill="#23354B" fill-opacity="0.72"/>
<path d="M72.7164 11.2375C72.684 11.2698 72.6929 13.2695 72.7281 13.478C72.7957 13.8949 73.0162 14.1944 73.3219 14.2855C73.4042 14.309 73.5718 14.3295 73.6923 14.3295C74.1068 14.3295 74.4566 14.1886 74.73 13.9126L74.9005 13.7364V13.8538C74.9005 14.0036 74.9357 14.1005 75.0239 14.1827C75.1239 14.2796 75.218 14.306 75.4384 14.306C75.7647 14.3031 75.753 14.3178 75.753 13.9449C75.753 13.6277 75.753 13.6219 75.6795 13.5954C75.6383 13.5807 75.5913 13.5338 75.5766 13.4927C75.5589 13.4457 75.5472 12.9641 75.5472 12.3152V11.214L74.7682 11.2316L74.7594 12.2006L74.7535 13.1697L74.6418 13.3165C74.4742 13.5367 74.292 13.6365 74.0362 13.6483C73.7834 13.66 73.6747 13.6042 73.5718 13.4134C73.5042 13.29 73.5042 13.2666 73.4954 12.2506L73.4865 11.217H73.1103C72.9045 11.217 72.7252 11.2258 72.7164 11.2375Z" fill="#23354B" fill-opacity="0.72"/>
<path d="M79.4566 11.2551C79.4566 11.2757 79.7212 11.9657 80.0475 12.785L80.6354 14.2767L80.5854 14.4264C80.512 14.6525 80.4385 14.7847 80.3473 14.8581C80.2768 14.9139 80.2415 14.9197 80.0887 14.908C79.9916 14.8992 79.8888 14.8816 79.8594 14.8698C79.8123 14.8522 79.8094 14.8757 79.8153 15.1987L79.8241 15.5452L79.9123 15.5687C80.0593 15.6127 80.4032 15.6039 80.5737 15.554C80.7618 15.4982 80.9852 15.3338 81.1087 15.1605C81.1704 15.0783 81.3997 14.4617 81.8553 13.1638C82.2169 12.1331 82.5138 11.2728 82.5138 11.2551C82.5138 11.2258 82.4256 11.217 82.161 11.217C81.8112 11.217 81.8054 11.217 81.7789 11.2874C81.7642 11.3286 81.6055 11.8395 81.4232 12.4268C81.2439 13.014 81.0881 13.5103 81.0764 13.5279C81.0646 13.5485 80.8853 13.0728 80.6766 12.4708C80.4708 11.8718 80.2797 11.3432 80.2591 11.2963L80.218 11.217H79.8388C79.5448 11.217 79.4566 11.2258 79.4566 11.2551Z" fill="#23354B" fill-opacity="0.72"/>
</svg>
