<svg width="130" height="20" viewBox="0 0 130 20" fill="none" xmlns="http://www.w3.org/2000/svg">
<path fill-rule="evenodd" clip-rule="evenodd" d="M25.0745 12.7119L26.9186 6.84152H26.9731L28.6862 12.7119H25.0745ZM17.0328 19.5206H22.9359L23.787 16.7927H29.8537L30.6503 19.5206H36.7388L29.7992 0.45835H24.0598L17.0328 19.5206Z" fill="#0E5AD5"/>
<path fill-rule="evenodd" clip-rule="evenodd" d="M54.1641 19.5205L61.0819 0.490977H66.7341L73.5646 19.5205H67.5742L63.9407 6.77595L59.969 19.5205H54.1641Z" fill="#0E5AD5"/>
<path fill-rule="evenodd" clip-rule="evenodd" d="M76.6091 19.5206H82.4794V5.33575H87.826V0.45835H71.2734V5.33575H76.6091V19.5206Z" fill="#0E5AD5"/>
<path fill-rule="evenodd" clip-rule="evenodd" d="M0 19.5206H16.0725V14.6323H5.87034V12.2536H14.8723V7.71444H5.87034V5.33575H15.7779V0.45835H0V19.5206Z" fill="#0E5AD5"/>
<path fill-rule="evenodd" clip-rule="evenodd" d="M54.2733 7.56161C53.7605 2.78241 50.8798 0.0327342 45.6424 0C39.772 0 35.9749 3.98266 35.9749 9.98394C35.9749 15.6142 39.4774 19.9679 45.6424 19.9679C51.2181 19.9679 54.3497 15.887 54.3497 12.0353H48.5775C48.2284 13.8248 47.4537 15.2105 45.4787 15.2105C42.729 15.2105 41.8452 12.5372 41.8452 9.97303C41.8452 7.40885 42.729 4.73555 45.4787 4.73555C47.9119 4.73555 48.4466 6.84145 48.5448 7.53978H54.2624L54.2733 7.56161Z" fill="#0E5AD5"/>
<path fill-rule="evenodd" clip-rule="evenodd" d="M129.857 19.3241L111.482 12.6354V7.1797L129.857 0.567387V6.36135L117.548 9.87482L129.857 13.7047V19.3241Z" fill="#0E5AD5"/>
<path fill-rule="evenodd" clip-rule="evenodd" d="M90.8921 0.63281L109.278 7.31059V12.7772L90.8921 19.3786V13.5956L103.2 10.0821L90.8921 6.25219V0.63281Z" fill="#0E5AD5"/>
<path fill-rule="evenodd" clip-rule="evenodd" d="M90.8921 0.63281L109.278 7.31059V12.7772L90.8921 19.3786V13.5956L103.2 10.0821L90.8921 6.25219V0.63281Z" fill="#0E5AD5"/>
</svg>
